<svg id="Layer_1" data-name="Layer 1" xmlns="http://www.w3.org/2000/svg" viewBox="0 0 85 85"><defs><style>.cls-1{fill:#fff;}</style></defs><title>RecruiterKIT-Content-Icon-</title><path class="cls-1" d="M65.56,54.76H19.84a2.61,2.61,0,1,0,0,5.22H65.56a2.61,2.61,0,0,0,0-5.22Zm0-10.13H19.84a2.61,2.61,0,1,0,0,5.22H65.56a2.61,2.61,0,0,0,0-5.22Zm0-10.13H19.84a2.61,2.61,0,0,0,0,5.22H65.56a2.61,2.61,0,0,0,0-5.22Zm.37-22.38H18.85a2.61,2.61,0,0,0-2.61,2.61V25.84a2.61,2.61,0,0,0,2.61,2.61H65.93a2.61,2.61,0,0,0,2.61-2.61V14.73A2.61,2.61,0,0,0,65.93,12.12ZM68.33,0H16.67A11.72,11.72,0,0,0,5,11.69V73.31A11.72,11.72,0,0,0,16.67,85H68.33A11.72,11.72,0,0,0,80.05,73.31V11.69A11.72,11.72,0,0,0,68.33,0Zm5.86,73.31a5.86,5.86,0,0,1-5.86,5.84H16.67a5.86,5.86,0,0,1-5.86-5.84V11.69a5.86,5.86,0,0,1,5.86-5.84H68.33a5.86,5.86,0,0,1,5.86,5.84ZM38.32,63.84H19.84a2.61,2.61,0,1,0,0,5.21H38.32a2.61,2.61,0,1,0,0-5.21Z"/></svg>