<svg 
 xmlns="http://www.w3.org/2000/svg"
 xmlns:xlink="http://www.w3.org/1999/xlink"
 width="91px" height="103px">
<path fill-rule="evenodd"  fill="rgb(255, 255, 255)"
 d="M76.804,102.990 L14.205,102.990 C6.375,102.990 0.005,96.634 0.005,88.818 L0.005,14.158 C0.005,6.342 6.375,-0.014 14.205,-0.014 L21.307,-0.014 L69.703,-0.014 L76.804,-0.014 C84.634,-0.014 91.004,6.342 91.004,14.158 L91.004,88.818 C91.004,96.634 84.634,102.990 76.804,102.990 ZM83.904,14.158 C83.904,10.251 80.720,7.072 76.804,7.072 L14.205,7.072 C10.289,7.072 7.105,10.251 7.105,14.158 L7.105,88.818 C7.105,92.725 10.289,95.904 14.205,95.904 L76.804,95.904 C80.720,95.904 83.904,92.725 83.904,88.818 L83.904,14.158 ZM73.900,34.457 L16.844,34.457 C15.101,34.457 13.688,33.042 13.688,31.297 L13.688,17.839 C13.688,16.094 15.101,14.679 16.844,14.679 L73.900,14.679 C75.644,14.679 77.057,16.094 77.057,17.839 L77.057,31.297 C77.057,33.042 75.644,34.457 73.900,34.457 ZM18.040,41.797 L73.444,41.797 C75.187,41.797 76.601,43.213 76.601,44.958 C76.601,46.703 75.187,48.118 73.444,48.118 L18.040,48.118 C16.296,48.118 14.883,46.703 14.883,44.958 C14.883,43.213 16.296,41.797 18.040,41.797 ZM18.040,54.071 L73.444,54.071 C75.187,54.071 76.601,55.486 76.601,57.232 C76.601,58.977 75.187,60.392 73.444,60.392 L18.040,60.392 C16.296,60.392 14.883,58.977 14.883,57.232 C14.883,55.486 16.296,54.071 18.040,54.071 ZM18.040,66.346 L73.444,66.346 C75.187,66.346 76.601,67.760 76.601,69.506 C76.601,71.251 75.187,72.666 73.444,72.666 L18.040,72.666 C16.296,72.666 14.883,71.251 14.883,69.506 C14.883,67.760 16.296,66.346 18.040,66.346 ZM18.040,77.345 L40.444,77.345 C42.187,77.345 43.600,78.760 43.600,80.506 C43.600,82.251 42.187,83.666 40.444,83.666 L18.040,83.666 C16.296,83.666 14.883,82.251 14.883,80.506 C14.883,78.760 16.296,77.345 18.040,77.345 Z"/>
</svg>