<svg 
 xmlns="http://www.w3.org/2000/svg"
 xmlns:xlink="http://www.w3.org/1999/xlink"
 width="104px" height="104px">
<path fill-rule="evenodd"  fill="rgb(255, 255, 255)"
 d="M89.274,91.004 L14.251,91.004 C6.397,91.004 0.010,84.634 0.010,76.804 L0.010,14.205 C0.010,6.375 6.397,0.005 14.251,0.005 L89.274,0.005 C97.127,0.005 103.514,6.375 103.514,14.205 L103.514,21.307 L103.514,69.703 L103.514,76.804 C103.514,84.634 97.127,91.004 89.274,91.004 ZM96.394,14.205 C96.394,10.290 93.199,7.105 89.274,7.105 L14.251,7.105 C10.326,7.105 7.131,10.290 7.131,14.205 L7.131,76.804 C7.131,80.720 10.326,83.904 14.251,83.904 L89.274,83.904 C93.199,83.904 96.394,80.720 96.394,76.804 L96.394,14.205 ZM69.055,48.797 L44.446,61.066 C43.926,61.325 43.360,61.454 42.796,61.454 C42.121,61.454 41.448,61.270 40.855,60.905 C39.767,60.234 39.104,59.049 39.104,57.773 L39.104,33.236 C39.104,31.961 39.767,30.776 40.855,30.105 C41.944,29.434 43.302,29.373 44.446,29.944 L69.055,42.213 C70.305,42.836 71.095,44.111 71.095,45.505 C71.095,46.899 70.305,48.174 69.055,48.797 Z"/>
</svg>