<svg 
 xmlns="http://www.w3.org/2000/svg"
 xmlns:xlink="http://www.w3.org/1999/xlink"
 width="28px" height="23px">
<path fill-rule="evenodd"  fill="rgb(51, 51, 51)"
 d="M23.132,23.000 L4.867,23.000 C2.184,23.000 0.000,20.776 0.000,18.043 L0.000,4.956 C0.000,2.223 2.184,0.000 4.867,0.000 L23.132,0.000 C25.816,0.000 28.000,2.223 28.000,4.956 L28.000,18.043 C28.000,20.776 25.816,23.000 23.132,23.000 ZM4.867,20.457 L23.132,20.457 C23.330,20.457 23.519,20.425 23.702,20.378 L16.519,13.910 C15.716,14.342 14.854,14.579 13.987,14.579 C13.090,14.579 12.197,14.332 11.370,13.869 L4.182,20.341 C4.400,20.409 4.627,20.457 4.867,20.457 ZM2.498,18.043 C2.498,18.175 2.516,18.302 2.536,18.429 L9.361,12.283 L2.498,6.158 L2.498,18.043 ZM23.132,2.543 L4.867,2.543 C4.175,2.543 3.558,2.852 3.124,3.335 L11.955,11.216 C13.176,12.305 14.814,12.301 16.031,11.204 L24.831,3.280 C24.400,2.827 23.799,2.543 23.132,2.543 ZM25.502,6.071 L18.543,12.338 L25.446,18.554 C25.482,18.389 25.502,18.219 25.502,18.043 L25.502,6.071 Z"/>
</svg>