<svg 
 xmlns="http://www.w3.org/2000/svg"
 xmlns:xlink="http://www.w3.org/1999/xlink"
 width="23px" height="25px">
<path fill-rule="evenodd"  fill="rgb(51, 51, 51)"
 d="M17.605,24.386 L17.605,13.479 C17.605,12.202 17.247,11.307 15.704,11.307 C13.145,11.307 12.652,13.479 12.652,13.479 L12.652,24.386 L7.699,24.386 L7.699,6.745 L12.652,6.745 L12.652,8.430 C13.360,7.880 15.128,6.747 17.605,6.747 C19.210,6.747 22.557,7.726 22.557,13.632 L22.557,24.386 L17.605,24.386 ZM0.270,6.745 L5.223,6.745 L5.223,24.386 L0.270,24.386 L0.270,6.745 ZM2.900,5.664 C1.617,5.664 0.580,4.607 0.580,3.300 C0.580,1.994 1.620,0.937 2.900,0.937 C4.183,0.939 5.223,1.997 5.223,3.300 C5.223,4.607 4.183,5.664 2.900,5.664 Z"/>
</svg>