<svg 
 xmlns="http://www.w3.org/2000/svg"
 xmlns:xlink="http://www.w3.org/1999/xlink"
 width="26px" height="22px">
<path fill-rule="evenodd"  fill="rgb(51, 51, 51)"
 d="M22.487,3.736 C23.601,3.022 24.337,2.047 24.700,0.811 C23.616,1.411 22.536,1.821 21.458,2.047 C20.489,0.962 19.261,0.410 17.790,0.410 C16.352,0.410 15.137,0.936 14.144,1.959 C13.158,2.990 12.661,4.244 12.661,5.703 C12.661,6.149 12.715,6.545 12.822,6.882 C8.580,6.731 5.069,4.896 2.303,1.367 C1.834,2.229 1.600,3.111 1.600,4.020 C1.600,5.890 2.356,7.372 3.868,8.459 C3.006,8.384 2.246,8.157 1.600,7.785 C1.600,9.119 1.976,10.235 2.730,11.217 C3.487,12.188 4.459,12.810 5.647,13.073 C5.217,13.188 4.763,13.243 4.297,13.243 C3.867,13.243 3.562,13.204 3.381,13.124 C3.699,14.211 4.297,15.095 5.162,15.769 C6.024,16.447 7.015,16.807 8.129,16.837 C6.292,18.340 4.192,19.084 1.816,19.084 C1.234,19.084 0.822,19.076 0.572,19.027 C2.912,20.613 5.517,21.398 8.399,21.398 C11.349,21.398 13.956,20.619 16.225,19.061 C18.493,17.511 20.167,15.600 21.243,13.349 C22.323,11.100 22.859,8.761 22.859,6.316 L22.859,5.643 C23.904,4.825 24.750,3.901 25.396,2.882 C24.459,3.304 23.489,3.589 22.487,3.736 Z"/>
</svg>