<svg 
 xmlns="http://www.w3.org/2000/svg"
 xmlns:xlink="http://www.w3.org/1999/xlink"
 width="107px" height="107px">
<path fill-rule="evenodd"  fill="rgb(255, 255, 255)"
 d="M53.500,106.702 C24.165,106.702 0.297,82.836 0.297,53.501 C0.297,24.164 24.165,0.298 53.500,0.298 C82.837,0.298 106.702,24.164 106.702,53.501 C106.702,82.836 82.837,106.702 53.500,106.702 ZM53.500,6.991 C27.854,6.991 6.991,27.854 6.991,53.501 C6.991,79.144 27.854,100.009 53.500,100.009 C79.146,100.009 100.011,79.144 100.011,53.501 C100.011,27.854 79.146,6.991 53.500,6.991 ZM77.126,77.532 L29.874,77.532 C27.841,77.532 26.194,75.882 26.194,73.847 L26.194,57.839 C26.194,55.805 27.841,54.157 29.874,54.157 C31.909,54.157 33.557,55.805 33.557,57.839 L33.557,70.167 L73.442,70.167 L73.442,57.839 C73.442,55.805 75.091,54.157 77.126,54.157 C79.159,54.157 80.809,55.805 80.809,57.839 L80.809,73.847 C80.809,75.882 79.159,77.532 77.126,77.532 ZM56.199,61.585 C56.167,61.620 56.145,61.658 56.112,61.692 C55.391,62.413 54.444,62.772 53.500,62.768 C52.554,62.772 51.609,62.413 50.886,61.692 C50.855,61.658 50.831,61.620 50.801,61.585 L39.359,50.143 C37.920,48.706 37.920,46.373 39.359,44.935 C40.795,43.497 43.128,43.499 44.565,44.935 L49.820,50.190 L49.820,28.649 C49.820,26.614 51.465,24.964 53.500,24.964 C55.533,24.964 57.183,26.614 57.183,28.649 L57.183,50.188 L62.434,44.935 C63.872,43.499 66.203,43.497 67.641,44.935 C69.077,46.373 69.077,48.706 67.641,50.143 L56.199,61.585 Z"/>
</svg>