<svg id="Layer_1" data-name="Layer 1" xmlns="http://www.w3.org/2000/svg" viewBox="0 0 85 85"><defs><style>.cls-1{fill:#fff;}</style></defs><title>RecruiterKIT-Content-Icon-</title><path class="cls-1" d="M42.5,1A41.5,41.5,0,1,0,84,42.5,41.55,41.55,0,0,0,42.5,1Zm0,77.78A36.28,36.28,0,1,1,78.78,42.5,36.33,36.33,0,0,1,42.5,78.78Zm-2.1-30,.06.08a2.9,2.9,0,0,0,4.08,0,.27.27,0,0,1,.07-.08l8.92-8.93a2.87,2.87,0,0,0-4.06-4.06l-4.1,4.1V23.11a2.87,2.87,0,1,0-5.74,0V39.92l-4.1-4.1a2.87,2.87,0,0,0-4.06,4.06ZM60.93,43a2.87,2.87,0,0,0-2.87,2.87V55.5H26.94V45.88a2.87,2.87,0,0,0-5.74,0V58.37a2.88,2.88,0,0,0,2.87,2.88H60.93a2.87,2.87,0,0,0,2.87-2.88V45.88A2.87,2.87,0,0,0,60.93,43Z"/></svg>