<svg id="Layer_1" data-name="Layer 1" xmlns="http://www.w3.org/2000/svg" viewBox="0 0 85 85"><defs><style>.cls-1{fill:#fff;}</style></defs><title>RecruiterKIT-Content-Icon-</title><path class="cls-1" d="M73.31,5.13H11.69A11.69,11.69,0,0,0,0,16.8V68.2A11.69,11.69,0,0,0,11.69,79.87H73.31A11.69,11.69,0,0,0,85,68.2V16.8A11.69,11.69,0,0,0,73.31,5.13ZM79.15,68.2A5.84,5.84,0,0,1,73.31,74H11.69A5.84,5.84,0,0,1,5.85,68.2V16.8A5.84,5.84,0,0,1,11.69,11H73.31a5.84,5.84,0,0,1,5.84,5.83ZM56.7,39.8,36.49,29.72a3,3,0,0,0-4.38,2.7V52.58a3,3,0,0,0,3,3,3.08,3.08,0,0,0,1.35-.32L56.7,45.2a3,3,0,0,0,0-5.4Z"/></svg>